# xmcd CD database file
#
# Track frame offsets:
#	150
#	17878
#	38416
#
# Disc length: 1059 seconds
#
# Revision: 0
# Processed by: cddbd v1.5.1PL2 Copyright (c) Steve Scherf et al.
# Submitted via: CDex 1.51
#
DISCID=17042103
DTITLE=ＥＲＩＣ　CLAPTON - チェンジ・ザ・ワールド
DYEAR=1900
DGENRE=R&B
TTITLE0=チェンジ・ザ・ワールド
TTITLE1=ティアーズ・イン・ヘブン
TTITLE2=ワンダフル・トゥナイト（ライブ）
EXTD=
EXTT0=
EXTT1=
EXTT2=
PLAYORDER=
